<svg height="15" viewBox="0 0 21 15" width="21" xmlns="http://www.w3.org/2000/svg" xmlns:xlink="http://www.w3.org/1999/xlink"><linearGradient id="a" x1="50%" x2="50%" y1="0%" y2="100%"><stop offset="0" stop-color="#fff"/><stop offset="1" stop-color="#f0f0f0"/></linearGradient><linearGradient id="b" x1="50%" x2="50%" y1="0%" y2="100%"><stop offset="0" stop-color="#0a17a7"/><stop offset="1" stop-color="#030e88"/></linearGradient><linearGradient id="c" x1="50%" x2="50%" y1="0%" y2="100%"><stop offset="0" stop-color="#e6273e"/><stop offset="1" stop-color="#cf152b"/></linearGradient><g fill="none" fill-rule="evenodd"><path d="m0 0h21v15h-21z" fill="url(#a)"/><path d="m-.001887 0h21v15h-21z" fill="url(#b)"/><path d="m5.00341861 10h-5.00530593v-5h5.00530593l-7.08554364-4.77925953 1.11838581-1.65807514 8.9618519 6.04484543v-5.60751076h5.00000002v5.60751076l8.9618519-6.04484543 1.1183858 1.65807514-7.0855437 4.77925953h5.005306v5h-5.005306l7.0855437 4.7792595-1.1183858 1.6580752-8.9618519-6.0448455v5.6075108h-5.00000002v-5.6075108l-8.9618519 6.0448455-1.11838581-1.6580752z" fill="url(#a)"/><g fill="#db1f35" fill-rule="nonzero"><path d="m14.1364901 4.95800192 9.4990235-6.24914551c.1153482-.07588441.1473399-.23090907.0714555-.34625728s-.2309091-.14733995-.3462573-.07145554l-9.4990234 6.24914551c-.1153482.0758844-.14734.23090907-.0714556.34625728s.2309091.14733994.3462573.07145554z"/><path d="m14.8679651 10.4804377 8.5153809 5.739624c.1144916.0771708.2698646.0469163.3470354-.0675753s.0469163-.2698646-.0675753-.3470354l-8.5153808-5.739624c-.1144916-.07717081-.2698647-.0469163-.3470355.0675753-.0771707.1144915-.0469163.2698646.0675753.3470354z"/><path d="m6.14197982 4.5255348-8.88226318-5.98608399c-.11449654-.07716343-.26986765-.04689897-.34703108.06759758-.07716343.11449654-.04689897.26986764.06759757.34703107l8.88226319 5.98608399c.11449654.07716343.26986764.04689896.34703107-.06759758.07716344-.11449654.04689897-.26986764-.06759757-.34703107z"/><path d="m6.82747404 9.99532456-9.84564209 6.52917484c-.11506839.076308-.14648987.2314493-.07018182.3465177.07630804.1150683.23144929.1464898.34651769.0701818l9.84564209-6.5291748c.11506839-.0763081.14648987-.2314493.07018183-.3465177-.07630805-.11506841-.2314493-.14648989-.3465177-.07018184z"/></g><path d="m-.00188732 9h9v6h3.00000002v-6h9v-3h-9v-6h-3.00000002v6h-9z" fill="url(#c)"/></g></svg>